<svg version="1.1" xmlns="http://www.w3.org/2000/svg" xmlns:xlink="http://www.w3.org/1999/xlink" width="22" height="19" viewBox="0,0,256,221.07813"><g fill="#000000" fill-rule="nonzero" stroke="none" stroke-width="1" stroke-linecap="butt" stroke-linejoin="none" stroke-miterlimit="10" stroke-dasharray="" stroke-dashoffset="0" font-family="none" font-weight="none" font-size="none" text-anchor="none" style="mix-blend-mode: normal"><path d="M127.77178,221.08451l-108.17513,-106.96076c-12.54194,-12.65955 -19.5968,-29.45292 -19.5968,-47.27971c0,-17.82679 6.79357,-34.62016 19.5968,-47.27971c26.12911,-26.0943 68.98095,-26.0943 95.37129,0.25833l12.80384,12.65967l12.80233,-12.91799c26.39127,-26.0943 69.24218,-26.0943 95.63345,0c26.39011,25.83587 26.39011,68.20678 0,94.30109z" id="strokeMainSVG" stroke="#000000" stroke-linejoin="round"></path><g transform="translate(-0.00015,-0.0064) scale(11.63636,11.63636)" stroke="none" stroke-linejoin="miter"><path d="M20.2991,9.78586c2.2679,-2.24248 2.2679,-5.88373 0,-8.104c-2.268,-2.24248 -5.9505,-2.24248 -8.2185,0l-1.1002,1.11014l-1.10033,-1.08794c-2.26792,-2.26468 -5.9505,-2.26468 -8.19597,-0.0222c-1.10028,1.08793 -1.6841,2.53111 -1.6841,4.0631c0,1.53199 0.60628,2.97517 1.6841,4.0631l9.2963,9.19194zM1.4371,5.74496c0,-1.15454 0.4491,-2.22027 1.27992,-3.01957c0.85328,-0.84371 1.95356,-1.26556 3.05384,-1.26556c1.10028,0 2.20056,0.42185 3.05384,1.26556l2.1557,2.10926l2.1556,-2.13147c1.6841,-1.6652 4.446,-1.6652 6.1077,0c0.8084,0.7993 1.2799,1.86503 1.2799,3.01958c0,1.15454 -0.4491,2.22027 -1.2799,3.01957l-8.2633,8.19277l-8.26338,-8.17057c-0.80837,-0.8215 -1.27992,-1.88723 -1.27992,-3.01957z"></path></g></g></svg>